# xmcd
#
# Track frame offsets:
#	150
#	8971
#	32620
#	56742
#	86070
#	114265
#	138641
#	164216
#	188192
#	207146
#	240145
#	267695
#
# Disc length: 3684 seconds
#
# Revision: 0
# Processed by: cddbd v1.5.2PL0 Copyright (c) Steve Scherf et al.
# Submitted via: EZCDAudioConverter 8.0.2.1
#
DISCID=a80e620c
DTITLE=Various Artist - st. Phú Quang. Vol 14. Có Một Vài Điều Em Muốn Nói Với Anh
DYEAR=2007
DGENRE=
TTITLE0=Mỹ Hạnh - Thu cảm
TTITLE1=Hằng Nga - Romance № 2
TTITLE2=Quang Lý and Hằng Nga - Heo may
TTITLE3=Tấn Minh - Romance № 4
TTITLE4=Mỹ Hạnh - Giọt thu buồn
TTITLE5=Phương Anh - Có một ngày
TTITLE6=Tấn Minh - Mơ về nơi xa lắm
TTITLE7=Mỹ Hạnh - Em ơi Hà Nội phố
TTITLE8=Kasim Hoàng Vũ - Có Một Vài Điều Em Muốn Nói Với Anh
TTITLE9=Phương Anh - Khoảnh khắc
TTITLE10=Tấn Minh - Phố cũ của tôi
TTITLE11=Mỹ Hạnh - Thu cảm
EXTD=
EXTT0=
EXTT1=
EXTT2=
EXTT3=
EXTT4=
EXTT5=
EXTT6=
EXTT7=
EXTT8=
EXTT9=
EXTT10=
EXTT11=
PLAYORDER=
